<?xml version="1.0" encoding="UTF-8" standalone="no"?>
<!DOCTYPE svg PUBLIC "-//W3C//DTD SVG 20010904//EN" "http://www.w3.org/TR/2001/REC-SVG-20010904/DTD/svg10.dtd">
<svg version="1.0" xmlns="http://www.w3.org/2000/svg" width="1024.000000pt" height="1024.000000pt" viewBox="0 0 1024.000000 1024.000000" preserveAspectRatio="xMidYMid meet">

<g transform="translate(0.000000,1024.000000) scale(0.100000,-0.100000)" fill="#000000" stroke="none">
<path d="M0 5120 l0 -5120 5120 0 5120 0 0 5120 0 5120 -5120 0 -5120 0 0 -5120z m3294 4144 c9 -8 16 -20 16 -25 0 -6 -24 -43 -53 -82 -79 -106 -111 -155 -146 -225 -74 -148 -119 -297 -127 -427 -5 -78 -2 -102 21 -180 14 -49 40 -111 57 -138 36 -56 157 -171 208 -197 102 -52 280 -109 393 -125 60 -9 60 -10 1 -195 -44 -139 -102 -268 -142 -319 -21 -26 -25 -26 -147 4 -375 93 -638 275 -765 530 -56 113 -74 190 -75 315 0 227 26 328 134 515 113 196 364 444 546 538 60 31 59 31 79 11z m4419 -44 c239 -153 411 -341 527 -575 85 -170 95 -215 95 -415 0 -187 -10 -233 -77 -357 -122 -226 -319 -380 -604 -471 -134 -43 -278 -76 -297 -69 -23 9 -70 85 -107 174 -35 84 -103 345 -92 354 4 3 48 11 97 18 174 23 357 102 468 201 202 181 223 484 56 813 -51 100 -113 198 -173 272 -48 59 -54 73 -34 93 23 23 63 12 141 -38z m-3474 -1387 c8 -6 -79 -172 -223 -428 -28 -49 -60 -107 -71 -127 -12 -24 -25 -36 -35 -34 -8 3 -71 14 -140 27 -69 12 -131 25 -137 28 -9 5 -6 17 12 43 43 63 131 304 151 415 2 12 9 34 14 48 5 14 7 25 4 25 -3 0 -2 5 1 10 6 9 413 3 424 -7z m2839 -115 c35 -140 73 -249 122 -350 17 -34 30 -62 30 -64 0 -6 -152 -38 -245 -50 -22 -3 -42 -7 -44 -10 -2 -2 -19 17 -36 44 -53 78 -295 525 -295 543 0 5 71 10 158 12 86 1 184 4 217 5 l60 2 33 -132z m-4306 -807 c110 -29 226 -89 358 -184 63 -45 142 -99 175 -119 65 -39 175 -90 175 -81 0 3 7 0 15 -7 8 -7 15 -10 15 -7 0 4 17 0 39 -8 73 -25 227 -39 288 -25 30 6 57 9 61 6 9 -10 -22 -67 -71 -127 -45 -55 -189 -177 -273 -231 -97 -62 -218 -112 -345 -142 -92 -21 -343 -17 -424 8 -260 79 -388 141 -580 283 -218 161 -341 305 -328 386 20 126 189 223 473 271 14 3 97 3 185 1 120 -3 179 -8 237 -24z m5787 15 c282 -61 431 -157 431 -277 0 -71 -38 -121 -196 -263 -164 -147 -405 -294 -583 -357 -220 -78 -475 -80 -693 -5 -150 50 -315 159 -436 286 -40 42 -122 154 -122 166 0 5 62 9 138 9 157 1 235 18 376 85 85 41 104 53 257 161 150 106 310 178 443 200 52 8 341 4 385 -5z m-4263 -103 c104 -35 291 -260 432 -518 55 -102 139 -287 147 -324 2 -9 10 -32 18 -51 23 -54 74 -265 86 -359 16 -122 14 -298 -5 -378 -23 -103 -75 -202 -133 -256 -50 -47 -48 -57 6 -36 47 18 233 56 328 68 99 12 382 16 455 6 167 -22 250 -39 393 -81 10 -3 -4 16 -31 43 -133 133 -173 384 -117 733 46 285 239 695 454 962 76 95 131 142 206 179 130 63 243 23 312 -108 44 -83 49 -103 26 -103 -11 0 -25 6 -31 13 -8 7 -43 12 -95 12 -68 0 -92 -5 -137 -26 -103 -49 -188 -136 -247 -254 -47 -91 -83 -220 -39 -138 20 38 92 112 147 151 48 35 147 72 189 72 54 0 140 -44 140 -72 0 -4 -25 -5 -55 -2 -109 13 -214 -28 -318 -125 -54 -50 -136 -167 -180 -256 -97 -196 -135 -347 -144 -570 -7 -182 6 -289 50 -423 38 -113 64 -160 138 -252 78 -97 102 -157 107 -265 3 -72 -1 -102 -17 -149 -25 -71 -27 -145 -5 -246 28 -132 5 -212 -85 -292 -96 -86 -226 -107 -421 -68 -58 12 -116 23 -130 26 -14 3 -57 11 -97 19 -84 17 -318 20 -408 5 -33 -6 -76 -13 -95 -16 -19 -3 -42 -7 -50 -11 -8 -3 -44 -11 -80 -19 -252 -55 -437 -5 -521 140 -35 61 -37 118 -12 245 17 86 14 109 -26 256 -3 11 -6 65 -6 120 0 121 15 158 106 261 91 103 140 214 177 399 11 54 9 391 -2 440 -10 41 -27 116 -31 136 -10 49 -64 187 -106 274 -60 122 -134 223 -208 282 -90 71 -127 84 -242 85 -54 0 -99 4 -99 9 0 5 19 21 43 36 35 23 53 28 112 28 58 0 81 -5 130 -29 69 -34 141 -98 186 -165 28 -41 31 -43 24 -16 -18 80 -108 238 -170 300 -29 29 -105 83 -138 98 -52 23 -144 22 -207 -3 -28 -11 -52 -20 -54 -20 -3 0 7 29 22 65 61 155 171 215 308 168z m-128 -535 c7 -7 12 -20 12 -31 0 -24 50 -74 83 -82 16 -4 39 -1 58 9 24 12 35 13 45 5 23 -19 16 -39 -21 -55 -94 -39 -197 10 -211 102 -8 57 6 80 34 52z m2542 -35 c0 -75 -61 -134 -139 -135 -43 0 -96 24 -105 48 -11 29 8 35 57 17 43 -16 49 -16 81 -1 25 12 38 28 51 62 12 32 23 46 36 46 15 0 19 -8 19 -37z m-2665 -1757 c9 -14 20 -51 25 -84 9 -63 35 -110 78 -138 15 -10 22 -23 20 -37 -8 -55 -118 6 -158 87 -52 108 -21 258 35 172z m2837 -21 c28 -97 -42 -239 -130 -264 -29 -9 -32 -8 -32 13 0 12 8 31 19 42 47 51 71 103 71 156 0 81 53 121 72 53z m-2630 -112 c37 -39 48 -74 48 -155 0 -60 -2 -69 -16 -64 -9 3 -26 6 -38 6 -22 0 -24 5 -28 69 -5 60 -10 75 -42 116 -33 44 -35 50 -21 66 14 15 19 15 43 3 15 -7 39 -26 54 -41z m2473 38 c3 -6 -8 -25 -24 -43 -41 -47 -47 -90 -21 -162 24 -72 25 -76 2 -76 -50 0 -95 74 -93 152 1 80 43 138 97 138 18 0 35 -4 39 -9z m115 -227 c9 -44 -7 -114 -35 -156 -24 -36 -54 -58 -102 -72 -35 -11 -30 25 11 79 23 29 37 61 42 92 4 31 15 54 32 70 31 29 45 25 52 -13z m-2750 6 c11 -11 20 -28 20 -37 0 -40 22 -90 55 -127 66 -74 27 -106 -53 -44 -51 39 -82 100 -84 161 -1 70 22 87 62 47z m170 -85 c87 -45 108 -226 33 -285 -40 -31 -53 -12 -46 65 7 81 -2 127 -33 165 -17 20 -23 36 -19 50 8 24 26 25 65 5z m2385 -9 c15 -22 14 -26 -10 -61 -30 -46 -33 -102 -6 -161 34 -74 -16 -103 -66 -38 -39 52 -45 150 -13 209 18 33 59 73 77 75 2 0 10 -11 18 -24z m155 -210 c0 -70 -20 -158 -48 -210 -33 -60 -104 -111 -133 -95 -26 13 -24 19 15 61 50 53 66 89 73 165 5 57 10 70 40 99 19 19 38 32 44 29 5 -4 9 -25 9 -49z m-2666 13 c14 -17 26 -43 26 -58 0 -65 30 -132 82 -181 34 -32 49 -54 45 -64 -10 -24 -37 -19 -88 15 -52 36 -94 96 -107 154 -7 36 -8 58 -3 143 1 30 14 28 45 -9z m267 -204 c11 -25 19 -63 19 -100 l0 -61 -35 0 c-19 0 -35 0 -36 1 0 0 -2 20 -5 45 -3 25 -19 74 -37 109 l-31 63 23 20 c24 19 24 19 54 -9 16 -15 38 -46 48 -68z m2174 71 c15 -23 15 -26 -4 -45 -12 -12 -21 -27 -22 -33 0 -7 -3 -25 -5 -40 -3 -15 4 -53 15 -85 17 -49 18 -60 6 -72 -21 -21 -62 10 -87 66 -32 73 -10 179 44 217 30 21 35 20 53 -8z m-860 -157 c72 -7 136 -15 144 -19 22 -12 -100 -95 -184 -125 -108 -39 -332 -46 -446 -14 -39 11 -86 27 -103 36 -50 26 -136 84 -136 93 0 8 97 26 175 33 99 9 432 6 550 -4z m-1506 -53 c6 -7 25 -41 42 -75 17 -34 46 -73 64 -87 18 -14 36 -32 39 -40 8 -20 -32 -34 -63 -22 -41 15 -98 66 -115 103 -18 36 -24 104 -12 124 10 15 31 14 45 -3z m2511 -23 c0 -109 -64 -194 -154 -204 -45 -6 -43 17 5 64 23 23 52 64 65 92 21 44 57 84 77 85 4 0 7 -17 7 -37z m-2269 -92 c48 -50 77 -115 66 -145 -8 -20 -17 -20 -42 2 -40 34 -146 172 -140 182 3 5 20 10 37 10 25 0 42 -11 79 -49z m2051 22 c24 -22 23 -26 -12 -61 -25 -26 -30 -38 -30 -79 1 -26 7 -66 15 -88 15 -42 10 -56 -27 -76 -16 -9 -22 -3 -43 46 -42 95 -30 178 34 243 38 37 39 37 63 15z m-2218 -189 c17 -21 60 -68 95 -107 56 -60 62 -71 47 -79 -21 -12 -67 3 -120 40 -42 29 -85 105 -80 144 1 13 3 26 3 31 2 17 26 4 55 -29z m2369 10 c-11 -99 -39 -143 -119 -182 -40 -19 -57 -23 -65 -15 -15 15 33 87 110 166 56 57 78 67 74 31z m-2180 -40 c69 -35 127 -108 127 -159 0 -49 -48 -23 -140 78 -52 56 -60 70 -50 82 16 19 24 19 63 -1z m1896 -112 c-1 -54 4 -88 15 -109 15 -29 14 -33 -7 -64 -36 -54 -52 -49 -71 23 -10 35 -17 78 -16 97 1 52 46 127 78 131 1 0 2 -35 1 -78z m-1964 -133 c38 -39 78 -75 88 -80 11 -6 17 -19 15 -32 -5 -33 -45 -32 -106 3 -43 25 -58 41 -78 83 -54 117 -19 128 81 26z m2175 43 c0 -49 -41 -114 -94 -149 -53 -36 -106 -44 -106 -16 0 16 44 82 64 95 17 11 68 51 96 75 33 29 40 29 40 -5z m-2000 -34 c57 -30 100 -84 107 -137 5 -33 3 -41 -10 -41 -18 0 -158 124 -177 157 -27 46 11 56 80 21z m1689 -97 c-1 -45 5 -80 16 -104 9 -20 14 -44 11 -54 -10 -28 -44 -65 -57 -61 -13 4 -48 128 -49 171 0 45 41 117 66 117 11 0 14 -17 13 -69z m-1767 -143 c92 -81 109 -98 104 -113 -8 -30 -110 4 -163 54 -38 36 -66 100 -52 117 6 8 15 14 20 14 5 0 46 -33 91 -72z m1998 55 c-1 -27 -34 -96 -56 -114 -33 -28 -136 -78 -150 -72 -20 7 -17 20 11 57 14 18 25 37 25 43 0 5 17 18 38 27 20 9 53 30 72 46 40 34 60 38 60 13z m-1808 -49 c51 -32 88 -84 88 -122 0 -47 -26 -41 -96 19 -32 28 -72 61 -87 74 -24 21 -27 27 -17 45 9 17 17 20 43 15 18 -4 49 -17 69 -31z m1473 -102 c0 -48 4 -101 9 -119 7 -27 4 -35 -17 -57 -15 -14 -31 -26 -36 -26 -36 0 -48 171 -17 230 23 44 47 72 55 64 3 -3 6 -45 6 -92z m-1603 -97 c26 -24 72 -60 102 -79 64 -41 73 -53 54 -72 -20 -20 -98 -2 -145 33 -41 32 -83 100 -83 136 0 38 18 33 72 -18z m1832 26 c7 -11 -26 -88 -51 -117 -39 -47 -183 -95 -183 -62 0 8 9 23 20 33 11 10 22 26 25 36 4 10 25 28 48 39 23 11 60 33 82 50 44 32 51 35 59 21z m-1554 -80 c49 -49 63 -79 49 -102 -11 -18 -50 3 -137 72 -69 55 -80 72 -63 93 20 24 97 -9 151 -63z m1209 -48 c-1 -43 2 -90 6 -105 14 -53 -63 -120 -80 -69 -13 41 -10 158 5 187 47 90 70 86 69 -13z m200 -149 c-12 -20 -33 -46 -46 -59 -27 -24 -145 -61 -162 -51 -14 9 24 70 57 93 26 17 31 19 59 22 6 0 24 12 40 25 33 28 67 37 71 19 2 -7 -6 -29 -19 -49z m-1546 13 c34 -24 79 -51 100 -61 68 -31 36 -75 -45 -60 -50 10 -95 41 -129 90 -31 46 -33 74 -4 74 9 0 44 -19 78 -43z m196 27 c58 -17 131 -80 131 -114 0 -35 -50 -24 -140 30 -92 55 -104 68 -88 87 14 17 33 16 97 -3z m1021 -64 c-4 -30 -4 -77 0 -105 8 -47 7 -51 -18 -72 -15 -13 -30 -23 -35 -23 -29 0 -37 151 -11 206 18 37 54 68 65 56 4 -4 3 -32 -1 -62z m-124 -112 c-12 -44 -27 -170 -22 -184 3 -8 -9 -24 -28 -39 -55 -42 -58 -36 -50 68 7 101 13 119 53 153 34 31 55 31 47 2z m-700 -29 c22 -10 51 -29 64 -41 22 -21 22 -22 4 -29 -41 -16 -95 -9 -159 23 -65 32 -75 44 -53 66 15 15 92 5 144 -19z m-262 -16 c22 -14 65 -34 95 -43 91 -26 79 -81 -16 -74 -59 5 -109 31 -146 77 -53 64 -7 91 67 40z m1296 22 c0 -15 -31 -62 -53 -83 -43 -40 -179 -67 -190 -38 -7 18 80 92 103 88 8 -1 33 7 55 18 37 19 85 27 85 15z m-470 -106 c0 -6 -5 -19 -10 -30 -9 -15 -15 -17 -30 -9 -22 12 -26 36 -7 43 22 9 47 7 47 -4z m-457 -15 c13 -5 13 -9 0 -36 -14 -27 -19 -30 -52 -24 -20 3 -42 6 -48 6 -7 0 -13 9 -13 19 0 14 11 21 48 29 26 5 48 10 49 11 1 0 8 -2 16 -5z m281 -8 c112 -47 174 -207 131 -337 -19 -58 -52 -116 -78 -138 -15 -12 -12 -18 32 -57 33 -30 54 -59 65 -91 21 -63 20 -73 -8 -73 -18 0 -29 10 -43 37 -28 57 -90 85 -178 81 -82 -4 -128 -30 -151 -84 -12 -28 -20 -34 -44 -34 l-29 0 13 45 c21 68 48 108 89 130 43 23 45 31 14 55 -13 10 -36 42 -52 71 -55 101 -44 261 23 341 51 60 145 84 216 54z m486 -65 c0 -29 -67 -79 -120 -90 -52 -11 -120 1 -120 22 1 18 91 69 111 64 10 -3 35 1 56 9 54 19 73 17 73 -5z m-966 -11 c33 -11 72 -20 87 -20 42 0 59 -10 59 -36 0 -29 -43 -43 -110 -37 -54 6 -86 21 -124 61 -50 53 -14 66 88 32z m138 -171 c4 -48 -8 -50 -52 -9 -37 35 -34 46 13 47 34 1 35 -1 39 -38z m661 35 c19 -20 -60 -74 -108 -74 -16 0 -20 36 -7 56 11 18 101 31 115 18z m27 -978 l0 -474 -22 -4 c-13 -2 -202 -5 -420 -7 l-398 -3 0 481 0 481 420 0 420 0 0 -474z"/>
<path d="M4694 4614 c-72 -25 -104 -77 -104 -169 0 -76 34 -146 116 -234 130 -140 297 -179 402 -93 98 81 56 245 -101 387 -103 94 -230 138 -313 109z"/>
<path d="M5989 4603 c-86 -35 -133 -66 -195 -127 -69 -70 -100 -122 -115 -193 -12 -57 -11 -63 12 -109 19 -39 34 -54 73 -73 115 -57 250 -18 368 107 83 88 103 129 115 235 17 146 -104 221 -258 160z"/>
<path d="M5348 1932 c-86 -52 -82 -250 5 -309 93 -64 190 16 191 157 1 109 -46 170 -131 170 -21 0 -50 -8 -65 -18z"/>
<path d="M5050 810 c0 -378 1 -390 19 -390 53 0 51 -9 51 291 l0 279 293 2 292 3 3 33 3 32 -295 0 -296 0 0 35 0 35 148 0 c81 0 218 3 305 7 l157 6 0 29 0 28 -340 0 -340 0 0 -390z"/>
<path d="M5268 794 l-3 -135 33 6 32 6 0 -71 0 -70 59 0 c32 0 73 -3 90 -6 l31 -7 0 78 0 78 30 -6 30 -6 0 134 0 135 -149 0 -150 0 -3 -136z m192 -54 l0 -40 -45 0 -45 0 0 40 0 40 45 0 45 0 0 -40z"/>
<path d="M5745 540 c-11 -12 -32 -29 -48 -36 l-28 -15 47 -35 c25 -19 48 -33 50 -31 3 3 4 35 2 72 l-3 67 -20 -22z"/>
</g>
</svg>